<svg width="300" height="56" viewBox="0 0 300 56" fill="none" xmlns="http://www.w3.org/2000/svg">
<path d="M27.9385 55.8771C43.3685 55.8771 55.877 43.3686 55.877 27.9385C55.877 12.5085 43.3685 0 27.9385 0C12.5085 0 0 12.5085 0 27.9385C0 43.3686 12.5085 55.8771 27.9385 55.8771Z" fill="url(#paint0_linear_2026_3307)"/>
<path d="M31.8235 24.2157L27.0307 23.1547C22.2349 22.0876 19.837 20.1063 19.837 17.2109C19.836 16.4495 20.0196 15.6992 20.3719 15.0242C20.7243 14.3493 21.235 13.7697 21.8603 13.3353C23.3242 12.2687 25.1037 11.7241 26.9138 11.7886C29.0574 11.77 31.1381 12.5124 32.7857 13.8838C33.3994 14.3615 33.9179 14.9502 34.3143 15.6193C34.8393 16.6701 35.2784 17.7617 35.6272 18.8834L35.798 19.324L35.9149 19.1712C36.2926 18.5777 40.5639 10.6107 40.5639 10.6107L40.2491 10.4848C39.3257 11.0307 38.2816 11.3396 37.2098 11.384C36.178 11.2982 35.1588 11.0992 34.1705 10.7905C31.6394 10.1185 29.0374 9.75022 26.4193 9.69346C23.3919 9.55888 20.4114 10.4772 17.9847 12.2922C16.9631 13.0688 16.1409 14.0772 15.5859 15.2342C15.0308 16.3912 14.7589 17.6636 14.7924 18.9464C14.7262 20.0985 14.9087 21.2513 15.3276 22.3266C15.7465 23.4019 16.3921 24.3743 17.2203 25.1779C18.8149 26.6706 21.4077 27.7347 24.9985 28.3701C29.6205 29.1974 32.6928 30.0966 34.2154 31.0677C36.2956 32.4345 37.3357 34.164 37.3357 36.2562C37.3614 37.1077 37.1722 37.9519 36.7856 38.711C36.399 39.47 35.8274 40.1195 35.1236 40.5994C33.3246 41.7553 31.2072 42.3154 29.0719 42.2C26.2931 42.3242 23.5505 41.5311 21.2668 39.943C20.2751 39.1892 19.4456 38.2434 18.8276 37.1619C18.2096 36.0804 17.8159 34.8855 17.6699 33.6485L17.1574 33.5226C16.0041 36.8426 14.3384 39.9616 12.2207 42.7665L12.4455 43.1352C13.5381 42.495 14.7763 42.1452 16.0424 42.1191C17.1606 42.1509 18.2726 42.2985 19.3604 42.5597L22.6785 43.306C25.0508 43.8724 27.4785 44.174 29.9172 44.2052C33.0596 44.3054 36.1342 43.2784 38.5856 41.3098C39.6895 40.4662 40.5813 39.3766 41.1901 38.1278C41.7989 36.879 42.1079 35.5053 42.0925 34.1161C42.0745 29.0205 38.6515 25.7204 31.8235 24.2157Z" fill="white"/>
<path d="M28.288 37.0655C28.6602 37.1264 29.0398 37.1264 29.412 37.0655C29.7833 36.9992 30.1435 36.8812 30.4821 36.7148C30.808 36.5636 31.1107 36.3668 31.3813 36.1304C31.6369 35.9075 31.8449 35.6353 31.9928 35.3301L32.0647 35.1952C32.2001 34.9311 32.2681 34.6376 32.2625 34.3409C32.2621 34.0598 32.1877 33.7838 32.0467 33.5406C31.897 33.2944 31.6904 33.0878 31.4442 32.9381C31.1519 32.7647 30.8278 32.6516 30.4911 32.6054L27.2989 32.0839L23.6211 39.4484L25.6983 39.7812L27.173 36.8677L28.288 37.0655ZM28.5937 34.0891L29.6908 34.269C29.7553 34.2781 29.8169 34.3013 29.8713 34.3371C29.9258 34.3728 29.9716 34.4202 30.0055 34.4758C30.0437 34.538 30.0639 34.6096 30.0639 34.6826C30.0639 34.7556 30.0437 34.8272 30.0055 34.8894L29.9336 35.0243C29.8484 35.1651 29.7262 35.2797 29.5803 35.3558C29.4344 35.4319 29.2705 35.4666 29.1063 35.4559L28.0092 35.2761L28.5937 34.0891Z" fill="white"/>
<path d="M28.6399 15.1608C28.7727 15.0826 28.9277 15.051 29.0805 15.0708L31.4724 15.4755L32.2727 13.794L29.8808 13.3893C29.5149 13.325 29.1406 13.325 28.7748 13.3893C28.4099 13.4538 28.0558 13.5688 27.7227 13.731C27.3921 13.8928 27.0887 14.1052 26.8235 14.3605C26.5744 14.5873 26.3701 14.8587 26.221 15.1608L23.6133 20.7449L25.6725 21.0956L27.1382 17.9843L29.3592 18.3979L30.1595 16.7254L27.9385 16.3207L28.2802 15.6104C28.3438 15.423 28.4711 15.2639 28.6399 15.1608Z" fill="white"/>
<path d="M76.3856 13.5351V12.6451C75.7423 12.6318 75.1723 12.5051 74.6756 12.2651C74.1823 12.0251 73.7956 11.6885 73.5156 11.2551C73.2356 10.8185 73.0956 10.2985 73.0956 9.69512C73.0956 9.09512 73.2356 8.57678 73.5156 8.14012C73.7956 7.70345 74.1823 7.36512 74.6756 7.12512C75.1723 6.88178 75.7423 6.75345 76.3856 6.74012V5.86012H77.2906V6.74012C77.9373 6.75345 78.5073 6.88178 79.0006 7.12512C79.4973 7.36512 79.8856 7.70345 80.1656 8.14012C80.4456 8.57678 80.5856 9.09512 80.5856 9.69512C80.5856 10.2985 80.4456 10.8185 80.1656 11.2551C79.8856 11.6885 79.4973 12.0251 79.0006 12.2651C78.5073 12.5051 77.9373 12.6318 77.2906 12.6451V13.5351H76.3856ZM76.3856 11.8301V7.55512C75.9056 7.56845 75.4906 7.66345 75.1406 7.84012C74.794 8.01345 74.5256 8.25845 74.3356 8.57512C74.1456 8.88845 74.0506 9.26178 74.0506 9.69512C74.0506 10.1285 74.1456 10.5035 74.3356 10.8201C74.5256 11.1335 74.794 11.3785 75.1406 11.5551C75.4906 11.7285 75.9056 11.8201 76.3856 11.8301ZM77.2906 11.8301C77.7706 11.8201 78.1856 11.7285 78.5356 11.5551C78.889 11.3785 79.159 11.1335 79.3456 10.8201C79.5356 10.5035 79.6306 10.1285 79.6306 9.69512C79.6306 9.26178 79.5356 8.88845 79.3456 8.57512C79.159 8.25845 78.889 8.01345 78.5356 7.84012C78.1856 7.66345 77.7706 7.56845 77.2906 7.55512V11.8301ZM84.0391 13.3851C83.5191 13.3851 83.0607 13.2768 82.6641 13.0601C82.2674 12.8435 81.9574 12.5418 81.7341 12.1551C81.5107 11.7651 81.3991 11.3118 81.3991 10.7951C81.3991 10.4218 81.4624 10.0751 81.5891 9.75512C81.7191 9.43512 81.8991 9.15845 82.1291 8.92512C82.3624 8.69178 82.6341 8.51012 82.9441 8.38012C83.2574 8.25012 83.5974 8.18512 83.9641 8.18512C84.3607 8.18512 84.7141 8.25512 85.0241 8.39512C85.3374 8.53512 85.5957 8.73178 85.7991 8.98512C86.0057 9.23512 86.1541 9.53012 86.2441 9.87012C86.3341 10.2068 86.3524 10.5735 86.2991 10.9701H82.3091C82.2991 11.2968 82.3657 11.5835 82.5091 11.8301C82.6524 12.0735 82.8591 12.2635 83.1291 12.4001C83.4024 12.5368 83.7257 12.6051 84.0991 12.6051C84.3724 12.6051 84.6391 12.5618 84.8991 12.4751C85.1591 12.3885 85.3891 12.2601 85.5891 12.0901L85.9791 12.7751C85.8191 12.9051 85.6291 13.0168 85.4091 13.1101C85.1924 13.2001 84.9657 13.2685 84.7291 13.3151C84.4924 13.3618 84.2624 13.3851 84.0391 13.3851ZM82.3591 10.2551H85.3791C85.3657 9.84178 85.2374 9.52012 84.9941 9.29012C84.7507 9.05678 84.4024 8.94012 83.9491 8.94012C83.5091 8.94012 83.1457 9.05678 82.8591 9.29012C82.5724 9.52012 82.4057 9.84178 82.3591 10.2551ZM91.0884 13.2351V9.11512H88.9134V9.87012C88.9134 10.3401 88.8884 10.7585 88.8384 11.1251C88.7884 11.4885 88.7 11.8035 88.5734 12.0701C88.4467 12.3335 88.2684 12.5501 88.0384 12.7201C87.8117 12.8901 87.52 13.0151 87.1634 13.0951L86.9034 12.4901C87.2267 12.4068 87.4684 12.2618 87.6284 12.0551C87.7917 11.8451 87.9017 11.5618 87.9584 11.2051C88.015 10.8451 88.0434 10.4001 88.0434 9.87012V8.33512H92.0084V13.2351H91.0884ZM86.9034 14.7351V12.4901L87.5284 12.5551L87.6684 12.4551H92.9984V14.7351H92.1534V13.2351H87.7484V14.7351H86.9034ZM96.1387 13.3851C95.6187 13.3851 95.1603 13.2768 94.7637 13.0601C94.367 12.8435 94.057 12.5418 93.8337 12.1551C93.6103 11.7651 93.4987 11.3118 93.4987 10.7951C93.4987 10.4218 93.562 10.0751 93.6887 9.75512C93.8187 9.43512 93.9987 9.15845 94.2287 8.92512C94.462 8.69178 94.7337 8.51012 95.0437 8.38012C95.357 8.25012 95.697 8.18512 96.0637 8.18512C96.4603 8.18512 96.8137 8.25512 97.1237 8.39512C97.437 8.53512 97.6953 8.73178 97.8987 8.98512C98.1053 9.23512 98.2537 9.53012 98.3437 9.87012C98.4337 10.2068 98.452 10.5735 98.3987 10.9701H94.4087C94.3987 11.2968 94.4653 11.5835 94.6087 11.8301C94.752 12.0735 94.9587 12.2635 95.2287 12.4001C95.502 12.5368 95.8253 12.6051 96.1987 12.6051C96.472 12.6051 96.7387 12.5618 96.9987 12.4751C97.2587 12.3885 97.4887 12.2601 97.6887 12.0901L98.0787 12.7751C97.9187 12.9051 97.7287 13.0168 97.5087 13.1101C97.292 13.2001 97.0653 13.2685 96.8287 13.3151C96.592 13.3618 96.362 13.3851 96.1387 13.3851ZM94.4587 10.2551H97.4787C97.4653 9.84178 97.337 9.52012 97.0937 9.29012C96.8503 9.05678 96.502 8.94012 96.0487 8.94012C95.6087 8.94012 95.2453 9.05678 94.9587 9.29012C94.672 9.52012 94.5053 9.84178 94.4587 10.2551ZM99.588 15.3351V8.33512H100.433V9.07012C100.636 8.81012 100.891 8.59845 101.198 8.43512C101.508 8.26845 101.898 8.18512 102.368 8.18512C102.855 8.18512 103.283 8.30012 103.653 8.53012C104.023 8.75678 104.311 9.06678 104.518 9.46012C104.728 9.85345 104.833 10.2951 104.833 10.7851C104.833 11.1418 104.773 11.4785 104.653 11.7951C104.536 12.1085 104.368 12.3851 104.148 12.6251C103.928 12.8618 103.666 13.0485 103.363 13.1851C103.063 13.3185 102.728 13.3851 102.358 13.3851C101.945 13.3851 101.583 13.3085 101.273 13.1551C100.966 12.9985 100.71 12.7935 100.503 12.5401V15.3351H99.588ZM102.203 12.5551C102.533 12.5551 102.825 12.4835 103.078 12.3401C103.335 12.1935 103.535 11.9885 103.678 11.7251C103.825 11.4585 103.898 11.1451 103.898 10.7851C103.898 10.4218 103.825 10.1085 103.678 9.84512C103.535 9.57845 103.335 9.37345 103.078 9.23012C102.825 9.08678 102.533 9.01512 102.203 9.01512C101.873 9.01512 101.58 9.08678 101.323 9.23012C101.07 9.37345 100.87 9.57845 100.723 9.84512C100.576 10.1085 100.503 10.4218 100.503 10.7851C100.503 11.1451 100.576 11.4585 100.723 11.7251C100.87 11.9885 101.07 12.1935 101.323 12.3401C101.58 12.4835 101.873 12.5551 102.203 12.5551ZM107.339 13.3851C106.993 13.3851 106.691 13.3218 106.434 13.1951C106.178 13.0685 105.979 12.8901 105.839 12.6601C105.699 12.4268 105.629 12.1518 105.629 11.8351C105.629 11.5751 105.696 11.3385 105.829 11.1251C105.963 10.9085 106.173 10.7301 106.459 10.5901C106.746 10.4468 107.118 10.3518 107.574 10.3051C108.031 10.2551 108.583 10.2635 109.229 10.3301L109.254 11.0051C108.754 10.9385 108.329 10.9135 107.979 10.9301C107.629 10.9435 107.346 10.9901 107.129 11.0701C106.913 11.1468 106.753 11.2501 106.649 11.3801C106.549 11.5068 106.499 11.6501 106.499 11.8101C106.499 12.0668 106.591 12.2685 106.774 12.4151C106.961 12.5585 107.216 12.6301 107.539 12.6301C107.816 12.6301 108.063 12.5801 108.279 12.4801C108.499 12.3768 108.673 12.2351 108.799 12.0551C108.929 11.8718 108.994 11.6601 108.994 11.4201V10.0501C108.994 9.82012 108.943 9.62012 108.839 9.45012C108.739 9.28012 108.591 9.14845 108.394 9.05512C108.198 8.96178 107.956 8.91512 107.669 8.91512C107.413 8.91512 107.158 8.95345 106.904 9.03012C106.651 9.10678 106.408 9.23178 106.174 9.40512L105.894 8.69512C106.198 8.48845 106.511 8.34345 106.834 8.26012C107.158 8.17678 107.468 8.13512 107.764 8.13512C108.214 8.13512 108.598 8.20678 108.914 8.35012C109.231 8.49012 109.473 8.70178 109.639 8.98512C109.806 9.26845 109.889 9.62178 109.889 10.0451V13.2351H109.044V12.6351C108.874 12.8785 108.639 13.0651 108.339 13.1951C108.039 13.3218 107.706 13.3851 107.339 13.3851ZM111.174 13.3101L110.834 12.4651C111.177 12.3785 111.427 12.2401 111.584 12.0501C111.741 11.8568 111.841 11.5851 111.884 11.2351C111.927 10.8851 111.949 10.4301 111.949 9.87012V8.33512H115.814V13.2351H114.894V9.11512H112.819V9.87012C112.819 10.4035 112.796 10.8668 112.749 11.2601C112.706 11.6501 112.624 11.9801 112.504 12.2501C112.387 12.5201 112.221 12.7418 112.004 12.9151C111.791 13.0851 111.514 13.2168 111.174 13.3101ZM117.4 13.2351V8.33512H118.32V12.5051H119.35C119.747 12.5051 120.044 12.4318 120.24 12.2851C120.44 12.1351 120.54 11.9101 120.54 11.6101C120.54 11.3168 120.447 11.0918 120.26 10.9351C120.077 10.7785 119.804 10.7001 119.44 10.7001H118.175V9.97512H119.505C120.125 9.97512 120.612 10.1168 120.965 10.4001C121.322 10.6801 121.5 11.0835 121.5 11.6101C121.5 11.9535 121.414 12.2468 121.24 12.4901C121.067 12.7301 120.825 12.9151 120.515 13.0451C120.205 13.1718 119.844 13.2351 119.43 13.2351H117.4ZM122.703 13.2351V8.33512H123.623V10.2651H126.278V8.33512H127.198V13.2351H126.278V11.0451H123.623V13.2351H122.703ZM130.142 13.3851C129.796 13.3851 129.494 13.3218 129.237 13.1951C128.981 13.0685 128.782 12.8901 128.642 12.6601C128.502 12.4268 128.432 12.1518 128.432 11.8351C128.432 11.5751 128.499 11.3385 128.632 11.1251C128.766 10.9085 128.976 10.7301 129.262 10.5901C129.549 10.4468 129.921 10.3518 130.377 10.3051C130.834 10.2551 131.386 10.2635 132.032 10.3301L132.057 11.0051C131.557 10.9385 131.132 10.9135 130.782 10.9301C130.432 10.9435 130.149 10.9901 129.932 11.0701C129.716 11.1468 129.556 11.2501 129.452 11.3801C129.352 11.5068 129.302 11.6501 129.302 11.8101C129.302 12.0668 129.394 12.2685 129.577 12.4151C129.764 12.5585 130.019 12.6301 130.342 12.6301C130.619 12.6301 130.866 12.5801 131.082 12.4801C131.302 12.3768 131.476 12.2351 131.602 12.0551C131.732 11.8718 131.797 11.6601 131.797 11.4201V10.0501C131.797 9.82012 131.746 9.62012 131.642 9.45012C131.542 9.28012 131.394 9.14845 131.197 9.05512C131.001 8.96178 130.759 8.91512 130.472 8.91512C130.216 8.91512 129.961 8.95345 129.707 9.03012C129.454 9.10678 129.211 9.23178 128.977 9.40512L128.697 8.69512C129.001 8.48845 129.314 8.34345 129.637 8.26012C129.961 8.17678 130.271 8.13512 130.567 8.13512C131.017 8.13512 131.401 8.20678 131.717 8.35012C132.034 8.49012 132.276 8.70178 132.442 8.98512C132.609 9.26845 132.692 9.62178 132.692 10.0451V13.2351H131.847V12.6351C131.677 12.8785 131.442 13.0651 131.142 13.1951C130.842 13.3218 130.509 13.3851 130.142 13.3851ZM133.887 13.2351L135.832 10.7601L136.007 11.3701C135.587 11.3735 135.235 11.3135 134.952 11.1901C134.669 11.0668 134.454 10.8935 134.307 10.6701C134.164 10.4435 134.092 10.1785 134.092 9.87512C134.092 9.55178 134.175 9.27512 134.342 9.04512C134.512 8.81512 134.749 8.64012 135.052 8.52012C135.359 8.39678 135.715 8.33512 136.122 8.33512H138.142V13.2351H137.247V9.06512H136.202C135.812 9.06512 135.519 9.13012 135.322 9.26012C135.125 9.39012 135.027 9.58845 135.027 9.85512C135.027 10.1185 135.119 10.3201 135.302 10.4601C135.485 10.5968 135.755 10.6651 136.112 10.6651H137.387V11.3701H136.417L134.962 13.2351H133.887ZM144.454 13.3851C143.938 13.3851 143.479 13.2718 143.079 13.0451C142.679 12.8185 142.366 12.5101 142.139 12.1201C141.913 11.7268 141.799 11.2818 141.799 10.7851C141.799 10.4085 141.866 10.0618 141.999 9.74512C142.136 9.42845 142.328 9.15345 142.574 8.92012C142.821 8.68678 143.109 8.50678 143.439 8.38012C143.773 8.25012 144.136 8.18512 144.529 8.18512C144.849 8.18512 145.144 8.22678 145.414 8.31012C145.684 8.39345 145.934 8.52178 146.164 8.69512L145.694 9.40512C145.544 9.27512 145.369 9.17845 145.169 9.11512C144.969 9.04845 144.758 9.01512 144.534 9.01512C144.168 9.01512 143.849 9.08512 143.579 9.22512C143.313 9.36178 143.106 9.56178 142.959 9.82512C142.813 10.0885 142.739 10.4051 142.739 10.7751C142.739 11.3318 142.899 11.7685 143.219 12.0851C143.543 12.3985 143.979 12.5551 144.529 12.5551C144.783 12.5551 145.019 12.5101 145.239 12.4201C145.459 12.3268 145.639 12.2068 145.779 12.0601L146.254 12.7601C145.998 12.9535 145.716 13.1068 145.409 13.2201C145.103 13.3301 144.784 13.3851 144.454 13.3851ZM149.43 13.3851C148.91 13.3851 148.451 13.2768 148.055 13.0601C147.658 12.8435 147.348 12.5418 147.125 12.1551C146.901 11.7651 146.79 11.3118 146.79 10.7951C146.79 10.4218 146.853 10.0751 146.98 9.75512C147.11 9.43512 147.29 9.15845 147.52 8.92512C147.753 8.69178 148.025 8.51012 148.335 8.38012C148.648 8.25012 148.988 8.18512 149.355 8.18512C149.751 8.18512 150.105 8.25512 150.415 8.39512C150.728 8.53512 150.986 8.73178 151.19 8.98512C151.396 9.23512 151.545 9.53012 151.635 9.87012C151.725 10.2068 151.743 10.5735 151.69 10.9701H147.7C147.69 11.2968 147.756 11.5835 147.9 11.8301C148.043 12.0735 148.25 12.2635 148.52 12.4001C148.793 12.5368 149.116 12.6051 149.49 12.6051C149.763 12.6051 150.03 12.5618 150.29 12.4751C150.55 12.3885 150.78 12.2601 150.98 12.0901L151.37 12.7751C151.21 12.9051 151.02 13.0168 150.8 13.1101C150.583 13.2001 150.356 13.2685 150.12 13.3151C149.883 13.3618 149.653 13.3851 149.43 13.3851ZM147.75 10.2551H150.77C150.756 9.84178 150.628 9.52012 150.385 9.29012C150.141 9.05678 149.793 8.94012 149.34 8.94012C148.9 8.94012 148.536 9.05678 148.25 9.29012C147.963 9.52012 147.796 9.84178 147.75 10.2551ZM154.014 13.2351V9.11512H152.334V8.33512H156.619V9.11512H154.934V13.2351H154.014ZM157.664 13.2351V8.33512H158.584V12.5051H159.614C160.011 12.5051 160.307 12.4318 160.504 12.2851C160.704 12.1351 160.804 11.9101 160.804 11.6101C160.804 11.3168 160.711 11.0918 160.524 10.9351C160.341 10.7785 160.067 10.7001 159.704 10.7001H158.439V9.97512H159.769C160.389 9.97512 160.876 10.1168 161.229 10.4001C161.586 10.6801 161.764 11.0835 161.764 11.6101C161.764 11.9535 161.677 12.2468 161.504 12.4901C161.331 12.7301 161.089 12.9151 160.779 13.0451C160.469 13.1718 160.107 13.2351 159.694 13.2351H157.664ZM163.487 13.3851C163.294 13.3851 163.127 13.3235 162.987 13.2001C162.85 13.0768 162.782 12.9151 162.782 12.7151C162.782 12.5818 162.812 12.4651 162.872 12.3651C162.935 12.2651 163.02 12.1868 163.127 12.1301C163.237 12.0735 163.357 12.0451 163.487 12.0451C163.684 12.0451 163.85 12.1068 163.987 12.2301C164.124 12.3535 164.192 12.5151 164.192 12.7151C164.192 12.8485 164.16 12.9651 164.097 13.0651C164.034 13.1651 163.949 13.2435 163.842 13.3001C163.735 13.3568 163.617 13.3851 163.487 13.3851ZM168.239 13.2351V6.23512H170.684C171.174 6.23512 171.605 6.31845 171.979 6.48512C172.352 6.65178 172.644 6.89345 172.854 7.21012C173.067 7.52345 173.174 7.90012 173.174 8.34012C173.174 8.79012 173.075 9.17012 172.879 9.48012C172.682 9.79012 172.397 10.0268 172.024 10.1901C171.65 10.3501 171.197 10.4301 170.664 10.4301H169.179V13.2351H168.239ZM169.179 9.60512H170.694C171.184 9.60512 171.562 9.50178 171.829 9.29512C172.099 9.08845 172.234 8.77678 172.234 8.36012C172.234 7.95345 172.095 7.63678 171.819 7.41012C171.545 7.18345 171.174 7.07012 170.704 7.07012H169.179V9.60512ZM175.709 13.3851C175.362 13.3851 175.06 13.3218 174.804 13.1951C174.547 13.0685 174.349 12.8901 174.209 12.6601C174.069 12.4268 173.999 12.1518 173.999 11.8351C173.999 11.5751 174.065 11.3385 174.199 11.1251C174.332 10.9085 174.542 10.7301 174.829 10.5901C175.115 10.4468 175.487 10.3518 175.944 10.3051C176.4 10.2551 176.952 10.2635 177.599 10.3301L177.624 11.0051C177.124 10.9385 176.699 10.9135 176.349 10.9301C175.999 10.9435 175.715 10.9901 175.499 11.0701C175.282 11.1468 175.122 11.2501 175.019 11.3801C174.919 11.5068 174.869 11.6501 174.869 11.8101C174.869 12.0668 174.96 12.2685 175.144 12.4151C175.33 12.5585 175.585 12.6301 175.909 12.6301C176.185 12.6301 176.432 12.5801 176.649 12.4801C176.869 12.3768 177.042 12.2351 177.169 12.0551C177.299 11.8718 177.364 11.6601 177.364 11.4201V10.0501C177.364 9.82012 177.312 9.62012 177.209 9.45012C177.109 9.28012 176.96 9.14845 176.764 9.05512C176.567 8.96178 176.325 8.91512 176.039 8.91512C175.782 8.91512 175.527 8.95345 175.274 9.03012C175.02 9.10678 174.777 9.23178 174.544 9.40512L174.264 8.69512C174.567 8.48845 174.88 8.34345 175.204 8.26012C175.527 8.17678 175.837 8.13512 176.134 8.13512C176.584 8.13512 176.967 8.20678 177.284 8.35012C177.6 8.49012 177.842 8.70178 178.009 8.98512C178.175 9.26845 178.259 9.62178 178.259 10.0451V13.2351H177.414V12.6351C177.244 12.8785 177.009 13.0651 176.709 13.1951C176.409 13.3218 176.075 13.3851 175.709 13.3851ZM182.094 13.3851C181.681 13.3851 181.309 13.3151 180.979 13.1751C180.649 13.0351 180.368 12.8301 180.134 12.5601C179.904 12.2901 179.728 11.9601 179.604 11.5701C179.484 11.1801 179.424 10.7351 179.424 10.2351C179.424 9.68845 179.464 9.19678 179.544 8.76012C179.624 8.32345 179.754 7.94512 179.934 7.62512C180.114 7.30178 180.351 7.03678 180.644 6.83012C180.941 6.62012 181.304 6.47012 181.734 6.38012L184.079 5.88512L184.239 6.70512L181.959 7.17012C181.553 7.26012 181.234 7.40345 181.004 7.60012C180.774 7.79345 180.606 8.03845 180.499 8.33512C180.393 8.63178 180.323 8.97845 180.289 9.37512C180.499 9.06512 180.766 8.81678 181.089 8.63012C181.416 8.44012 181.799 8.34512 182.239 8.34512C182.713 8.34512 183.128 8.45845 183.484 8.68512C183.844 8.90845 184.126 9.20845 184.329 9.58512C184.533 9.95845 184.634 10.3718 184.634 10.8251C184.634 11.1751 184.574 11.5051 184.454 11.8151C184.334 12.1251 184.161 12.3985 183.934 12.6351C183.708 12.8685 183.439 13.0518 183.129 13.1851C182.819 13.3185 182.474 13.3851 182.094 13.3851ZM182.069 12.5551C182.383 12.5551 182.663 12.4851 182.909 12.3451C183.156 12.2018 183.349 12.0018 183.489 11.7451C183.629 11.4885 183.699 11.1851 183.699 10.8351C183.699 10.4818 183.629 10.1768 183.489 9.92012C183.349 9.66345 183.156 9.46512 182.909 9.32512C182.666 9.18512 182.386 9.11512 182.069 9.11512C181.753 9.11512 181.471 9.18512 181.224 9.32512C180.978 9.46512 180.784 9.66345 180.644 9.92012C180.504 10.1768 180.434 10.4818 180.434 10.8351C180.434 11.1851 180.504 11.4885 180.644 11.7451C180.784 12.0018 180.978 12.2018 181.224 12.3451C181.471 12.4851 181.753 12.5551 182.069 12.5551ZM188.082 13.3851C187.575 13.3851 187.123 13.2668 186.727 13.0301C186.33 12.7935 186.018 12.4785 185.792 12.0851C185.565 11.6918 185.452 11.2585 185.452 10.7851C185.452 10.4351 185.517 10.1035 185.647 9.79012C185.777 9.47678 185.96 9.20012 186.197 8.96012C186.433 8.71678 186.712 8.52678 187.032 8.39012C187.352 8.25345 187.702 8.18512 188.082 8.18512C188.592 8.18512 189.045 8.30345 189.442 8.54012C189.838 8.77678 190.15 9.09178 190.377 9.48512C190.603 9.87845 190.717 10.3118 190.717 10.7851C190.717 11.1351 190.652 11.4668 190.522 11.7801C190.392 12.0935 190.208 12.3701 189.972 12.6101C189.735 12.8501 189.457 13.0401 189.137 13.1801C188.817 13.3168 188.465 13.3851 188.082 13.3851ZM188.082 12.5551C188.412 12.5551 188.703 12.4835 188.957 12.3401C189.213 12.1935 189.415 11.9885 189.562 11.7251C189.708 11.4585 189.782 11.1451 189.782 10.7851C189.782 10.4218 189.708 10.1085 189.562 9.84512C189.418 9.57845 189.218 9.37345 188.962 9.23012C188.705 9.08678 188.412 9.01512 188.082 9.01512C187.752 9.01512 187.458 9.08678 187.202 9.23012C186.948 9.37345 186.748 9.57845 186.602 9.84512C186.458 10.1085 186.387 10.4218 186.387 10.7851C186.387 11.1451 186.458 11.4585 186.602 11.7251C186.748 11.9885 186.95 12.1935 187.207 12.3401C187.463 12.4835 187.755 12.5551 188.082 12.5551ZM193.008 13.2351V9.11512H191.328V8.33512H195.613V9.11512H193.928V13.2351H193.008ZM198.013 13.3851C197.667 13.3851 197.365 13.3218 197.108 13.1951C196.852 13.0685 196.653 12.8901 196.513 12.6601C196.373 12.4268 196.303 12.1518 196.303 11.8351C196.303 11.5751 196.37 11.3385 196.503 11.1251C196.637 10.9085 196.847 10.7301 197.133 10.5901C197.42 10.4468 197.792 10.3518 198.248 10.3051C198.705 10.2551 199.257 10.2635 199.903 10.3301L199.928 11.0051C199.428 10.9385 199.003 10.9135 198.653 10.9301C198.303 10.9435 198.02 10.9901 197.803 11.0701C197.587 11.1468 197.427 11.2501 197.323 11.3801C197.223 11.5068 197.173 11.6501 197.173 11.8101C197.173 12.0668 197.265 12.2685 197.448 12.4151C197.635 12.5585 197.89 12.6301 198.213 12.6301C198.49 12.6301 198.737 12.5801 198.953 12.4801C199.173 12.3768 199.347 12.2351 199.473 12.0551C199.603 11.8718 199.668 11.6601 199.668 11.4201V10.0501C199.668 9.82012 199.617 9.62012 199.513 9.45012C199.413 9.28012 199.265 9.14845 199.068 9.05512C198.872 8.96178 198.63 8.91512 198.343 8.91512C198.087 8.91512 197.832 8.95345 197.578 9.03012C197.325 9.10678 197.082 9.23178 196.848 9.40512L196.568 8.69512C196.872 8.48845 197.185 8.34345 197.508 8.26012C197.832 8.17678 198.142 8.13512 198.438 8.13512C198.888 8.13512 199.272 8.20678 199.588 8.35012C199.905 8.49012 200.147 8.70178 200.313 8.98512C200.48 9.26845 200.563 9.62178 200.563 10.0451V13.2351H199.718V12.6351C199.548 12.8785 199.313 13.0651 199.013 13.1951C198.713 13.3218 198.38 13.3851 198.013 13.3851ZM204.293 13.3851C203.773 13.3851 203.315 13.2768 202.918 13.0601C202.521 12.8435 202.211 12.5418 201.988 12.1551C201.765 11.7651 201.653 11.3118 201.653 10.7951C201.653 10.4218 201.716 10.0751 201.843 9.75512C201.973 9.43512 202.153 9.15845 202.383 8.92512C202.616 8.69178 202.888 8.51012 203.198 8.38012C203.511 8.25012 203.851 8.18512 204.218 8.18512C204.615 8.18512 204.968 8.25512 205.278 8.39512C205.591 8.53512 205.85 8.73178 206.053 8.98512C206.26 9.23512 206.408 9.53012 206.498 9.87012C206.588 10.2068 206.606 10.5735 206.553 10.9701H202.563C202.553 11.2968 202.62 11.5835 202.763 11.8301C202.906 12.0735 203.113 12.2635 203.383 12.4001C203.656 12.5368 203.98 12.6051 204.353 12.6051C204.626 12.6051 204.893 12.5618 205.153 12.4751C205.413 12.3885 205.643 12.2601 205.843 12.0901L206.233 12.7751C206.073 12.9051 205.883 13.0168 205.663 13.1101C205.446 13.2001 205.22 13.2685 204.983 13.3151C204.746 13.3618 204.516 13.3851 204.293 13.3851ZM202.613 10.2551H205.633C205.62 9.84178 205.491 9.52012 205.248 9.29012C205.005 9.05678 204.656 8.94012 204.203 8.94012C203.763 8.94012 203.4 9.05678 203.113 9.29012C202.826 9.52012 202.66 9.84178 202.613 10.2551ZM207.742 13.2351V8.33512H208.547H208.577L210.847 11.5651L210.447 11.5751L212.617 8.33512H213.442V13.2351H212.587L212.597 9.46012L212.767 9.53512L210.907 12.2051H210.282L208.347 9.52512L208.512 9.45012L208.522 13.2351H207.742ZM219.747 13.3851C219.231 13.3851 218.772 13.2718 218.372 13.0451C217.972 12.8185 217.659 12.5101 217.432 12.1201C217.206 11.7268 217.092 11.2818 217.092 10.7851C217.092 10.4085 217.159 10.0618 217.292 9.74512C217.429 9.42845 217.621 9.15345 217.867 8.92012C218.114 8.68678 218.402 8.50678 218.732 8.38012C219.066 8.25012 219.429 8.18512 219.822 8.18512C220.142 8.18512 220.437 8.22678 220.707 8.31012C220.977 8.39345 221.227 8.52178 221.457 8.69512L220.987 9.40512C220.837 9.27512 220.662 9.17845 220.462 9.11512C220.262 9.04845 220.051 9.01512 219.827 9.01512C219.461 9.01512 219.142 9.08512 218.872 9.22512C218.606 9.36178 218.399 9.56178 218.252 9.82512C218.106 10.0885 218.032 10.4051 218.032 10.7751C218.032 11.3318 218.192 11.7685 218.512 12.0851C218.836 12.3985 219.272 12.5551 219.822 12.5551C220.076 12.5551 220.312 12.5101 220.532 12.4201C220.752 12.3268 220.932 12.2068 221.072 12.0601L221.547 12.7601C221.291 12.9535 221.009 13.1068 220.702 13.2201C220.396 13.3301 220.077 13.3851 219.747 13.3851ZM224.95 13.2351V12.5301L226.475 11.1251C226.962 10.6785 227.357 10.2901 227.66 9.96012C227.964 9.62678 228.187 9.32345 228.33 9.05012C228.474 8.77345 228.545 8.49512 228.545 8.21512C228.545 7.80845 228.404 7.48845 228.12 7.25512C227.84 7.02178 227.452 6.90512 226.955 6.90512C226.649 6.90512 226.352 6.95678 226.065 7.06012C225.779 7.16345 225.539 7.31345 225.345 7.51012L224.99 6.82012C225.264 6.58012 225.577 6.39845 225.93 6.27512C226.287 6.14845 226.665 6.08512 227.065 6.08512C227.535 6.08512 227.949 6.17012 228.305 6.34012C228.662 6.50678 228.939 6.74512 229.135 7.05512C229.335 7.36178 229.435 7.72345 229.435 8.14012C229.435 8.43012 229.377 8.72178 229.26 9.01512C229.144 9.30845 228.935 9.63845 228.635 10.0051C228.339 10.3685 227.917 10.8051 227.37 11.3151L226.17 12.4201H229.61V13.2351H224.95ZM233.599 13.3851C233.159 13.3851 232.762 13.2901 232.409 13.1001C232.059 12.9101 231.761 12.6468 231.514 12.3101C231.271 11.9735 231.084 11.5851 230.954 11.1451C230.824 10.7051 230.759 10.2351 230.759 9.73512C230.759 9.23178 230.824 8.76012 230.954 8.32012C231.084 7.88012 231.271 7.49345 231.514 7.16012C231.761 6.82345 232.059 6.56012 232.409 6.37012C232.762 6.18012 233.159 6.08512 233.599 6.08512C234.036 6.08512 234.429 6.18012 234.779 6.37012C235.129 6.56012 235.427 6.82345 235.674 7.16012C235.921 7.49345 236.109 7.88012 236.239 8.32012C236.369 8.76012 236.434 9.23178 236.434 9.73512C236.434 10.2351 236.369 10.7051 236.239 11.1451C236.109 11.5851 235.921 11.9735 235.674 12.3101C235.427 12.6468 235.129 12.9101 234.779 13.1001C234.429 13.2901 234.036 13.3851 233.599 13.3851ZM233.599 12.5351C233.882 12.5351 234.139 12.4718 234.369 12.3451C234.602 12.2151 234.802 12.0285 234.969 11.7851C235.139 11.5418 235.269 11.2485 235.359 10.9051C235.452 10.5585 235.499 10.1685 235.499 9.73512C235.499 9.15845 235.419 8.66012 235.259 8.24012C235.099 7.82012 234.876 7.49678 234.589 7.27012C234.306 7.04345 233.976 6.93012 233.599 6.93012C233.316 6.93012 233.057 6.99512 232.824 7.12512C232.591 7.25512 232.389 7.44178 232.219 7.68512C232.052 7.92845 231.924 8.22345 231.834 8.57012C231.744 8.91345 231.699 9.30178 231.699 9.73512C231.699 10.3118 231.777 10.8101 231.934 11.2301C232.094 11.6501 232.316 11.9735 232.599 12.2001C232.886 12.4235 233.219 12.5351 233.599 12.5351ZM240.376 13.3851C239.936 13.3851 239.54 13.2901 239.186 13.1001C238.836 12.9101 238.538 12.6468 238.291 12.3101C238.048 11.9735 237.861 11.5851 237.731 11.1451C237.601 10.7051 237.536 10.2351 237.536 9.73512C237.536 9.23178 237.601 8.76012 237.731 8.32012C237.861 7.88012 238.048 7.49345 238.291 7.16012C238.538 6.82345 238.836 6.56012 239.186 6.37012C239.54 6.18012 239.936 6.08512 240.376 6.08512C240.813 6.08512 241.206 6.18012 241.556 6.37012C241.906 6.56012 242.205 6.82345 242.451 7.16012C242.698 7.49345 242.886 7.88012 243.016 8.32012C243.146 8.76012 243.211 9.23178 243.211 9.73512C243.211 10.2351 243.146 10.7051 243.016 11.1451C242.886 11.5851 242.698 11.9735 242.451 12.3101C242.205 12.6468 241.906 12.9101 241.556 13.1001C241.206 13.2901 240.813 13.3851 240.376 13.3851ZM240.376 12.5351C240.66 12.5351 240.916 12.4718 241.146 12.3451C241.38 12.2151 241.58 12.0285 241.746 11.7851C241.916 11.5418 242.046 11.2485 242.136 10.9051C242.23 10.5585 242.276 10.1685 242.276 9.73512C242.276 9.15845 242.196 8.66012 242.036 8.24012C241.876 7.82012 241.653 7.49678 241.366 7.27012C241.083 7.04345 240.753 6.93012 240.376 6.93012C240.093 6.93012 239.835 6.99512 239.601 7.12512C239.368 7.25512 239.166 7.44178 238.996 7.68512C238.83 7.92845 238.701 8.22345 238.611 8.57012C238.521 8.91345 238.476 9.30178 238.476 9.73512C238.476 10.3118 238.555 10.8101 238.711 11.2301C238.871 11.6501 239.093 11.9735 239.376 12.2001C239.663 12.4235 239.996 12.5351 240.376 12.5351ZM245.114 13.3851L244.784 12.6451C245.317 12.5851 245.789 12.4651 246.199 12.2851C246.609 12.1051 246.959 11.8801 247.249 11.6101C247.542 11.3401 247.777 11.0418 247.954 10.7151C248.13 10.3851 248.255 10.0435 248.329 9.69012C248.142 9.96678 247.897 10.1885 247.594 10.3551C247.294 10.5185 246.962 10.6001 246.599 10.6001C246.162 10.6001 245.767 10.5051 245.414 10.3151C245.06 10.1251 244.78 9.86178 244.574 9.52512C244.37 9.18845 244.269 8.80178 244.269 8.36512C244.269 7.93512 244.375 7.54845 244.589 7.20512C244.805 6.86178 245.104 6.59012 245.484 6.39012C245.867 6.18678 246.302 6.08512 246.789 6.08512C247.299 6.08512 247.75 6.19512 248.144 6.41512C248.537 6.63512 248.845 6.95512 249.069 7.37512C249.295 7.79178 249.409 8.30012 249.409 8.90012C249.409 9.49678 249.302 10.0485 249.089 10.5551C248.875 11.0618 248.574 11.5101 248.184 11.9001C247.797 12.2901 247.342 12.6118 246.819 12.8651C246.299 13.1185 245.73 13.2918 245.114 13.3851ZM246.789 9.80512C247.092 9.80512 247.364 9.74178 247.604 9.61512C247.844 9.48845 248.034 9.31512 248.174 9.09512C248.314 8.87512 248.384 8.62678 248.384 8.35012C248.384 8.07012 248.315 7.82178 248.179 7.60512C248.045 7.38845 247.859 7.21845 247.619 7.09512C247.379 6.96845 247.102 6.90512 246.789 6.90512C246.482 6.90512 246.207 6.96845 245.964 7.09512C245.724 7.21845 245.535 7.38845 245.399 7.60512C245.262 7.82178 245.194 8.07012 245.194 8.35012C245.194 8.62678 245.264 8.87512 245.404 9.09512C245.547 9.31512 245.739 9.48845 245.979 9.61512C246.222 9.74178 246.492 9.80512 246.789 9.80512ZM253.328 13.2351V8.33512H256.503V9.11512H254.248V13.2351H253.328ZM259.761 13.3851C259.255 13.3851 258.803 13.2668 258.406 13.0301C258.01 12.7935 257.698 12.4785 257.471 12.0851C257.245 11.6918 257.131 11.2585 257.131 10.7851C257.131 10.4351 257.196 10.1035 257.326 9.79012C257.456 9.47678 257.64 9.20012 257.876 8.96012C258.113 8.71678 258.391 8.52678 258.711 8.39012C259.031 8.25345 259.381 8.18512 259.761 8.18512C260.271 8.18512 260.725 8.30345 261.121 8.54012C261.518 8.77678 261.83 9.09178 262.056 9.48512C262.283 9.87845 262.396 10.3118 262.396 10.7851C262.396 11.1351 262.331 11.4668 262.201 11.7801C262.071 12.0935 261.888 12.3701 261.651 12.6101C261.415 12.8501 261.136 13.0401 260.816 13.1801C260.496 13.3168 260.145 13.3851 259.761 13.3851ZM259.761 12.5551C260.091 12.5551 260.383 12.4835 260.636 12.3401C260.893 12.1935 261.095 11.9885 261.241 11.7251C261.388 11.4585 261.461 11.1451 261.461 10.7851C261.461 10.4218 261.388 10.1085 261.241 9.84512C261.098 9.57845 260.898 9.37345 260.641 9.23012C260.385 9.08678 260.091 9.01512 259.761 9.01512C259.431 9.01512 259.138 9.08678 258.881 9.23012C258.628 9.37345 258.428 9.57845 258.281 9.84512C258.138 10.1085 258.066 10.4218 258.066 10.7851C258.066 11.1451 258.138 11.4585 258.281 11.7251C258.428 11.9885 258.63 12.1935 258.886 12.3401C259.143 12.4835 259.435 12.5551 259.761 12.5551ZM267.153 13.2351V9.11512H264.978V9.87012C264.978 10.3401 264.953 10.7585 264.903 11.1251C264.853 11.4885 264.764 11.8035 264.638 12.0701C264.511 12.3335 264.333 12.5501 264.103 12.7201C263.876 12.8901 263.584 13.0151 263.228 13.0951L262.968 12.4901C263.291 12.4068 263.533 12.2618 263.693 12.0551C263.856 11.8451 263.966 11.5618 264.023 11.2051C264.079 10.8451 264.108 10.4001 264.108 9.87012V8.33512H268.073V13.2351H267.153ZM262.968 14.7351V12.4901L263.593 12.5551L263.733 12.4551H269.063V14.7351H268.218V13.2351H263.813V14.7351H262.968ZM271.568 13.3851C271.221 13.3851 270.92 13.3218 270.663 13.1951C270.406 13.0685 270.208 12.8901 270.068 12.6601C269.928 12.4268 269.858 12.1518 269.858 11.8351C269.858 11.5751 269.925 11.3385 270.058 11.1251C270.191 10.9085 270.401 10.7301 270.688 10.5901C270.975 10.4468 271.346 10.3518 271.803 10.3051C272.26 10.2551 272.811 10.2635 273.458 10.3301L273.483 11.0051C272.983 10.9385 272.558 10.9135 272.208 10.9301C271.858 10.9435 271.575 10.9901 271.358 11.0701C271.141 11.1468 270.981 11.2501 270.878 11.3801C270.778 11.5068 270.728 11.6501 270.728 11.8101C270.728 12.0668 270.82 12.2685 271.003 12.4151C271.19 12.5585 271.445 12.6301 271.768 12.6301C272.045 12.6301 272.291 12.5801 272.508 12.4801C272.728 12.3768 272.901 12.2351 273.028 12.0551C273.158 11.8718 273.223 11.6601 273.223 11.4201V10.0501C273.223 9.82012 273.171 9.62012 273.068 9.45012C272.968 9.28012 272.82 9.14845 272.623 9.05512C272.426 8.96178 272.185 8.91512 271.898 8.91512C271.641 8.91512 271.386 8.95345 271.133 9.03012C270.88 9.10678 270.636 9.23178 270.403 9.40512L270.123 8.69512C270.426 8.48845 270.74 8.34345 271.063 8.26012C271.386 8.17678 271.696 8.13512 271.993 8.13512C272.443 8.13512 272.826 8.20678 273.143 8.35012C273.46 8.49012 273.701 8.70178 273.868 8.98512C274.035 9.26845 274.118 9.62178 274.118 10.0451V13.2351H273.273V12.6351C273.103 12.8785 272.868 13.0651 272.568 13.1951C272.268 13.3218 271.935 13.3851 271.568 13.3851Z" fill="#313132"/>
<path d="M53.217 56C52.662 56 52.1628 55.8752 51.7195 55.6256C51.2799 55.3723 50.9316 55.0315 50.6746 54.6031C50.4176 54.171 50.2891 53.6848 50.2891 53.1447C50.2891 52.6045 50.4176 52.1184 50.6746 51.6863C50.9316 51.2542 51.2799 50.9133 51.7195 50.6637C52.1628 50.4142 52.662 50.2894 53.217 50.2894C53.7683 50.2894 54.2638 50.4179 54.7033 50.6749C55.1466 50.9282 55.4968 51.2709 55.7538 51.7031C56.0146 52.1352 56.145 52.6157 56.145 53.1447C56.145 53.6848 56.0165 54.171 55.7594 54.6031C55.5024 55.0315 55.1522 55.3723 54.7089 55.6256C54.2694 55.8752 53.7721 56 53.217 56ZM53.217 55.5865C53.6566 55.5865 54.0626 55.4859 54.4351 55.2848C54.8114 55.0799 55.1131 54.7949 55.3403 54.4299C55.5713 54.0611 55.6868 53.6327 55.6868 53.1447C55.6868 52.6567 55.5713 52.2302 55.3403 51.8651C55.1131 51.4963 54.8114 51.2113 54.4351 51.0102C54.0626 50.8053 53.6566 50.7029 53.217 50.7029C52.7812 50.7029 52.3751 50.8053 51.9989 51.0102C51.6264 51.2113 51.3247 51.4963 51.0937 51.8651C50.8665 52.2302 50.7528 52.6567 50.7528 53.1447C50.7528 53.6327 50.8665 54.0611 51.0937 54.4299C51.3209 54.7949 51.6208 55.0799 51.9933 55.2848C52.3696 55.4859 52.7775 55.5865 53.217 55.5865ZM52.1833 54.6813V51.6137H53.3958C53.7274 51.6137 53.9918 51.6956 54.1893 51.8595C54.3904 52.0234 54.491 52.2469 54.491 52.53C54.491 52.7535 54.4146 52.9379 54.2619 53.0832C54.1129 53.2285 53.9173 53.3235 53.6752 53.3682L54.6419 54.6813H54.0272L53.1332 53.452H52.6862V54.6813H52.1833ZM52.6862 53.0329H53.3064C53.515 53.0329 53.6771 52.9901 53.7926 52.9044C53.908 52.8187 53.9658 52.6995 53.9658 52.5468C53.9658 52.3903 53.9136 52.2674 53.8093 52.178C53.7087 52.0849 53.556 52.0383 53.3511 52.0383H52.6862V53.0329Z" fill="#2B454E"/>
<path d="M86.7399 42.4028C86.7399 41.9266 86.6662 41.5014 86.5188 41.1272C86.3828 40.7417 86.1276 40.3959 85.7535 40.0897C85.3907 39.7723 84.8748 39.4661 84.2058 39.1713C83.5482 38.8652 82.6978 38.5477 81.6547 38.2189C80.4981 37.8561 79.421 37.4479 78.4232 36.9944C77.4254 36.5408 76.5467 36.0136 75.787 35.4126C75.0387 34.8117 74.4548 34.1201 74.0352 33.3377C73.6157 32.544 73.406 31.6256 73.406 30.5825C73.406 29.562 73.6214 28.6323 74.0523 27.7932C74.4945 26.9542 75.1181 26.2342 75.9231 25.6333C76.7281 25.021 77.6749 24.5505 78.7634 24.2216C79.8632 23.8928 81.0764 23.7284 82.403 23.7284C84.2398 23.7284 85.8272 24.0629 87.1651 24.7319C88.5144 25.4008 89.5575 26.3079 90.2945 27.4531C91.0315 28.5983 91.4 29.8852 91.4 31.3138H86.7399C86.7399 30.5428 86.5755 29.8625 86.2467 29.2729C85.9292 28.6833 85.4417 28.2184 84.784 27.8783C84.1378 27.5381 83.3214 27.3681 82.335 27.3681C81.3825 27.3681 80.5888 27.5098 79.9539 27.7932C79.3303 28.0767 78.8597 28.4622 78.5423 28.9498C78.2361 29.4373 78.0831 29.9816 78.0831 30.5825C78.0831 31.036 78.1908 31.4442 78.4062 31.807C78.6216 32.1585 78.9448 32.493 79.3756 32.8105C79.8065 33.1166 80.3394 33.4058 80.9743 33.6779C81.6206 33.9387 82.369 34.1994 83.2193 34.4602C84.58 34.8684 85.7705 35.3219 86.7909 35.8208C87.8227 36.3197 88.6788 36.8866 89.3591 37.5216C90.0507 38.1565 90.5666 38.8709 90.9068 39.6645C91.2583 40.4582 91.434 41.3596 91.434 42.3688C91.434 43.4346 91.2243 44.387 90.8047 45.226C90.3852 46.0651 89.7843 46.7794 89.0019 47.369C88.2196 47.9586 87.2785 48.4065 86.1787 48.7126C85.0902 49.0187 83.8713 49.1718 82.522 49.1718C81.3202 49.1718 80.1296 49.0131 78.9504 48.6956C77.7826 48.3668 76.7224 47.8792 75.77 47.2329C74.8176 46.5753 74.0579 45.7476 73.491 44.7498C72.9241 43.7407 72.6406 42.5615 72.6406 41.2122H77.3347C77.3347 41.9946 77.4594 42.6636 77.7089 43.2191C77.9697 43.7634 78.3325 44.2112 78.7974 44.5627C79.2736 44.9029 79.8292 45.1523 80.4641 45.3111C81.0991 45.4698 81.785 45.5492 82.522 45.5492C83.4745 45.5492 84.2568 45.4188 84.8691 45.158C85.4927 44.8859 85.9576 44.5117 86.2637 44.0355C86.5812 43.5593 86.7399 43.015 86.7399 42.4028Z" fill="#E60000"/>
<path d="M104.564 39.8006H98.186V36.127H104.564C105.607 36.127 106.452 35.9569 107.098 35.6167C107.756 35.2652 108.238 34.789 108.544 34.1881C108.85 33.5758 109.003 32.8785 109.003 32.0962C109.003 31.3365 108.85 30.6278 108.544 29.9702C108.238 29.3126 107.756 28.7797 107.098 28.3715C106.452 27.9633 105.607 27.7592 104.564 27.7592H99.7167V48.8316H95.0396V24.0686H104.564C106.491 24.0686 108.135 24.4144 109.496 25.106C110.868 25.7863 111.911 26.7331 112.625 27.9463C113.351 29.1482 113.714 30.5201 113.714 32.0622C113.714 33.6609 113.351 35.0385 112.625 36.195C111.911 37.3515 110.868 38.2416 109.496 38.8652C108.135 39.4888 106.491 39.8006 104.564 39.8006Z" fill="#E60000"/>
<path d="M123.061 24.2453V48.8341H118.461V24.2453H123.061ZM132.88 34.8678V38.5325H121.857V34.8678H132.88ZM134.168 24.2453V27.91H121.857V24.2453H134.168Z" fill="#00AC3C"/>
<path d="M141.646 30.5614V48.8341H137.213V30.5614H141.646ZM136.912 25.7821C136.912 25.1178 137.135 24.5661 137.581 24.1271C138.038 23.688 138.652 23.4684 139.421 23.4684C140.191 23.4684 140.798 23.688 141.244 24.1271C141.702 24.5661 141.93 25.1178 141.93 25.7821C141.93 26.4351 141.702 26.9811 141.244 27.4202C140.798 27.8593 140.191 28.0788 139.421 28.0788C138.652 28.0788 138.038 27.8593 137.581 27.4202C137.135 26.9811 136.912 26.4351 136.912 25.7821Z" fill="#00AC3C"/>
<path d="M150.194 34.4625V48.8341H145.778V30.5614H149.926L150.194 34.4625ZM149.491 39.0391H148.186C148.198 37.7106 148.376 36.5059 148.722 35.4251C149.067 34.3443 149.553 33.4154 150.177 32.6386C150.813 31.8617 151.566 31.265 152.435 30.8485C153.305 30.4319 154.275 30.2236 155.346 30.2236C156.216 30.2236 157.002 30.3474 157.705 30.5951C158.407 30.8428 159.009 31.2369 159.511 31.7773C160.024 32.3177 160.415 33.027 160.682 33.9052C160.961 34.7721 161.1 35.8417 161.1 37.1139V48.8341H156.651V37.0801C156.651 36.247 156.528 35.5883 156.283 35.1042C156.049 34.6201 155.703 34.2767 155.246 34.0741C154.8 33.8714 154.248 33.7701 153.59 33.7701C152.909 33.7701 152.313 33.9108 151.8 34.1923C151.298 34.4625 150.874 34.8396 150.528 35.3238C150.194 35.8079 149.937 36.3652 149.759 36.9957C149.58 37.6261 149.491 38.3073 149.491 39.0391Z" fill="#00AC3C"/>
<path d="M174.968 44.9499V36.5228C174.968 35.9036 174.862 35.3688 174.65 34.9184C174.438 34.4681 174.115 34.1191 173.68 33.8714C173.245 33.6237 172.693 33.4999 172.024 33.4999C171.433 33.4999 170.914 33.6012 170.468 33.8038C170.033 34.0065 169.699 34.2936 169.464 34.6651C169.23 35.0254 169.113 35.442 169.113 35.9148H164.68C164.68 35.1605 164.859 34.4456 165.216 33.7701C165.572 33.0833 166.08 32.4753 166.738 31.9462C167.407 31.4058 168.204 30.9836 169.13 30.6796C170.067 30.3756 171.115 30.2236 172.275 30.2236C173.646 30.2236 174.868 30.46 175.938 30.9329C177.02 31.3945 177.867 32.0925 178.481 33.027C179.105 33.9615 179.418 35.138 179.418 36.5566V44.5277C179.418 45.4396 179.473 46.2221 179.585 46.8751C179.708 47.5169 179.886 48.0742 180.12 48.547V48.8341H175.62C175.408 48.3725 175.247 47.7871 175.135 47.0778C175.024 46.3572 174.968 45.6479 174.968 44.9499ZM175.587 37.705L175.62 40.3564H172.827C172.135 40.3564 171.528 40.4295 171.003 40.5759C170.479 40.711 170.05 40.9137 169.715 41.1839C169.381 41.4428 169.13 41.7581 168.963 42.1296C168.795 42.4899 168.712 42.9008 168.712 43.3624C168.712 43.8128 168.812 44.2181 169.013 44.5784C169.225 44.9386 169.526 45.2257 169.916 45.4396C170.318 45.6423 170.786 45.7436 171.321 45.7436C172.102 45.7436 172.782 45.586 173.362 45.2708C173.942 44.9443 174.394 44.5502 174.717 44.0886C175.04 43.627 175.213 43.1879 175.236 42.7713L176.507 44.6966C176.351 45.1582 176.117 45.6479 175.804 46.1658C175.492 46.6837 175.091 47.1678 174.6 47.6182C174.109 48.0685 173.518 48.4401 172.827 48.7328C172.135 49.0255 171.332 49.1719 170.418 49.1719C169.247 49.1719 168.199 48.9354 167.273 48.4626C166.347 47.9897 165.617 47.3423 165.082 46.5205C164.546 45.6986 164.279 44.7641 164.279 43.7171C164.279 42.7488 164.457 41.8932 164.814 41.1501C165.171 40.407 165.701 39.7822 166.403 39.2755C167.106 38.7576 167.976 38.3692 169.013 38.1103C170.061 37.8401 171.26 37.705 172.609 37.705H175.587Z" fill="#00AC3C"/>
<path d="M187.731 34.4625V48.8341H183.315V30.5614H187.464L187.731 34.4625ZM187.029 39.0391H185.724C185.735 37.7106 185.914 36.5059 186.259 35.4251C186.605 34.3443 187.09 33.4154 187.715 32.6386C188.35 31.8617 189.103 31.265 189.973 30.8485C190.843 30.4319 191.813 30.2236 192.884 30.2236C193.753 30.2236 194.54 30.3474 195.242 30.5951C195.945 30.8428 196.547 31.2369 197.049 31.7773C197.562 32.3177 197.952 33.027 198.22 33.9052C198.499 34.7721 198.638 35.8417 198.638 37.1139V48.8341H194.188V37.0801C194.188 36.247 194.066 35.5883 193.82 35.1042C193.586 34.6201 193.24 34.2767 192.783 34.0741C192.337 33.8714 191.785 33.7701 191.127 33.7701C190.447 33.7701 189.85 33.9108 189.337 34.1923C188.835 34.4625 188.412 34.8396 188.066 35.3238C187.731 35.8079 187.475 36.3652 187.296 36.9957C187.118 37.6261 187.029 38.3073 187.029 39.0391Z" fill="#00AC3C"/>
<path d="M212.489 43.8353C212.489 43.4525 212.388 43.1091 212.188 42.8051C211.987 42.5011 211.608 42.2253 211.05 41.9776C210.504 41.7187 209.701 41.4766 208.641 41.2514C207.705 41.0488 206.84 40.7955 206.048 40.4915C205.257 40.1875 204.576 39.8216 204.008 39.3938C203.439 38.9547 202.993 38.4424 202.669 37.8569C202.357 37.2602 202.201 36.5735 202.201 35.7966C202.201 35.0423 202.363 34.333 202.686 33.6687C203.01 32.9932 203.478 32.4021 204.091 31.8955C204.705 31.3776 205.452 30.9723 206.333 30.6796C207.214 30.3756 208.206 30.2236 209.31 30.2236C210.849 30.2236 212.171 30.4769 213.275 30.9836C214.39 31.4902 215.243 32.1882 215.834 33.0777C216.425 33.9558 216.721 34.9466 216.721 36.0499H212.305C212.305 35.5658 212.193 35.1267 211.97 34.7327C211.758 34.3386 211.429 34.0234 210.983 33.787C210.537 33.5393 209.974 33.4154 209.294 33.4154C208.68 33.4154 208.162 33.5167 207.738 33.7194C207.325 33.9221 207.013 34.1866 206.801 34.5131C206.589 34.8396 206.483 35.1999 206.483 35.594C206.483 35.8867 206.539 36.1513 206.651 36.3877C206.773 36.6129 206.968 36.8212 207.236 37.0126C207.504 37.2039 207.866 37.3785 208.323 37.5361C208.792 37.6937 209.366 37.8457 210.046 37.9921C211.396 38.2623 212.572 38.6225 213.576 39.0729C214.591 39.512 215.383 40.0974 215.951 40.8292C216.52 41.561 216.805 42.4955 216.805 43.6326C216.805 44.4432 216.632 45.1863 216.286 45.8618C215.94 46.5261 215.438 47.1059 214.78 47.6013C214.122 48.0967 213.336 48.4851 212.422 48.7666C211.507 49.0368 210.476 49.1719 209.327 49.1719C207.665 49.1719 206.26 48.8735 205.112 48.2768C203.963 47.6688 203.093 46.9033 202.502 45.9801C201.911 45.0456 201.616 44.0773 201.616 43.0753H205.848C205.881 43.7846 206.071 44.3532 206.416 44.781C206.762 45.2088 207.197 45.5184 207.721 45.7098C208.257 45.89 208.82 45.9801 209.411 45.9801C210.08 45.9801 210.643 45.89 211.1 45.7098C211.558 45.5184 211.903 45.2651 212.137 44.9499C212.372 44.6234 212.489 44.2519 212.489 43.8353Z" fill="#00AC3C"/>
<defs>
<linearGradient id="paint0_linear_2026_3307" x1="27.9385" y1="55.8681" x2="27.9385" y2="0" gradientUnits="userSpaceOnUse">
<stop stop-color="#007D6C"/>
<stop offset="1" stop-color="#03AE44"/>
</linearGradient>
</defs>
</svg>
