<svg xmlns="http://www.w3.org/2000/svg" width="80" height="100" fill="none"><path fill="url(#a)" d="M44.963 96.638C55.675 88.85 80 68.074 80 40 80 17.909 62.091 0 40 0S0 17.909 0 40c0 28.074 24.325 48.85 35.037 56.638a8.376 8.376 0 0 0 9.926 0Z"/><path fill="#fff" d="M45.562 34.67 38.7 33.152c-6.866-1.527-10.3-4.364-10.3-8.51a6.747 6.747 0 0 1 2.897-5.548 11.586 11.586 0 0 1 7.235-2.214 12.964 12.964 0 0 1 8.407 3 8.895 8.895 0 0 1 2.189 2.484 31.157 31.157 0 0 1 1.88 4.673l.244.631.167-.219c.541-.85 6.656-12.256 6.656-12.256l-.45-.18a9.307 9.307 0 0 1-4.352 1.287 20.208 20.208 0 0 1-4.351-.85 47.233 47.233 0 0 0-11.098-1.57 18.77 18.77 0 0 0-12.076 3.72 11.587 11.587 0 0 0-4.57 9.527 11.51 11.51 0 0 0 3.476 8.922c2.283 2.137 5.995 3.66 11.136 4.57 6.618 1.185 11.016 2.472 13.196 3.863 2.979 1.957 4.468 4.433 4.468 7.428a7.26 7.26 0 0 1-3.167 6.218 14.575 14.575 0 0 1-8.665 2.292 18.153 18.153 0 0 1-11.174-3.231 13.271 13.271 0 0 1-5.15-9.012l-.734-.18a48.226 48.226 0 0 1-7.068 13.234l.322.528a10.622 10.622 0 0 1 5.15-1.455 23.17 23.17 0 0 1 4.75.63l4.75 1.07a47.237 47.237 0 0 0 10.364 1.287 18.86 18.86 0 0 0 12.411-4.146 12.785 12.785 0 0 0 5.021-10.299c-.026-7.295-4.927-12.02-14.702-14.174Z"/><path fill="#fff" d="M40.502 53.068a4.983 4.983 0 0 0 1.61 0 5.778 5.778 0 0 0 1.531-.502c.467-.217.9-.499 1.288-.837.366-.32.663-.709.875-1.146l.103-.193c.194-.378.291-.798.283-1.223 0-.403-.107-.798-.309-1.146a2.575 2.575 0 0 0-.862-.862 3.645 3.645 0 0 0-1.365-.477l-4.57-.747L33.82 56.48l2.974.477 2.112-4.171 1.596.283Zm.438-4.261 1.57.257a.63.63 0 0 1 .451.296.567.567 0 0 1 0 .592l-.103.193a1.287 1.287 0 0 1-1.184.618l-1.571-.257.837-1.7ZM41.005 21.706a.991.991 0 0 1 .631-.129l3.425.58 1.145-2.408-3.424-.58a4.572 4.572 0 0 0-1.584 0 5.715 5.715 0 0 0-1.506.49 5.07 5.07 0 0 0-1.287.901c-.357.325-.65.713-.863 1.146L33.81 29.7l2.948.502 2.098-4.455 3.18.593 1.146-2.395-3.18-.58.49-1.016a1.21 1.21 0 0 1 .514-.644Z"/><defs><linearGradient id="a" x1="40" x2="40" y1="79.987" y2="0" gradientUnits="userSpaceOnUse"><stop stop-color="#007D6C"/><stop offset="1" stop-color="#03AE44"/></linearGradient></defs></svg>